<svg width="42" height="42" viewBox="0 0 42 42" fill="none" xmlns="http://www.w3.org/2000/svg">
<path d="M21.0003 0.33252C9.50033 0.33252 0.166992 9.66585 0.166992 21.1659C0.166992 32.6659 9.50033 41.9992 21.0003 41.9992C32.5003 41.9992 41.8337 32.6659 41.8337 21.1659C41.8337 9.66585 32.5003 0.33252 21.0003 0.33252ZM21.0003 6.58252C24.4587 6.58252 27.2503 9.37419 27.2503 12.8325C27.2503 16.2909 24.4587 19.0825 21.0003 19.0825C17.542 19.0825 14.7503 16.2909 14.7503 12.8325C14.7503 9.37419 17.542 6.58252 21.0003 6.58252ZM21.0003 36.1659C15.792 36.1659 11.1878 33.4992 8.50033 29.4575C8.56283 25.3117 16.8337 23.0409 21.0003 23.0409C25.1462 23.0409 33.4378 25.3117 33.5003 29.4575C30.8128 33.4992 26.2087 36.1659 21.0003 36.1659Z" fill="url(#paint0_linear_342_235)"/>
<defs>
<linearGradient id="paint0_linear_342_235" x1="15.667" y1="-64.432" x2="10.4623" y2="41.4813" gradientUnits="userSpaceOnUse">
<stop stop-color="#FF5758" stop-opacity="0.4"/>
<stop offset="1" stop-color="#FF5758"/>
</linearGradient>
</defs>
</svg>
