<svg width="50" height="50" viewBox="0 0 50 50" fill="none" xmlns="http://www.w3.org/2000/svg">
<path d="M10.5 0.916626C5.20999 0.916626 0.916656 5.20996 0.916656 10.5C0.916656 15.79 5.20999 20.0833 10.5 20.0833C15.79 20.0833 20.0833 15.79 20.0833 10.5C20.0833 5.20996 15.79 0.916626 10.5 0.916626ZM10.5 3.79163C12.0908 3.79163 13.375 5.07579 13.375 6.66663C13.375 8.25746 12.0908 9.54163 10.5 9.54163C8.90916 9.54163 7.62499 8.25746 7.62499 6.66663C7.62499 5.07579 8.90916 3.79163 10.5 3.79163ZM10.5 17.4C8.10416 17.4 5.98624 16.1733 4.74999 14.3141C4.77874 12.407 8.58332 11.3625 10.5 11.3625C12.4071 11.3625 16.2212 12.407 16.25 14.3141C15.0137 16.1733 12.8958 17.4 10.5 17.4Z" fill="#FF5758"/></svg>