<svg width="50" height="51" viewBox="0 0 50 51" fill="none" xmlns="http://www.w3.org/2000/svg">
<path d="M49.5695 15.4167L46.6049 10.6111C46.2082 9.97383 45.5595 9.50863 44.7993 9.31627C44.0392 9.1239 43.2287 9.21985 42.5435 9.58333L30.9225 15.8889V3.27778C30.9225 1.75 29.5885 0.5 27.958 0.5H22.0289C20.3984 0.5 19.0643 1.75 19.0643 3.27778V15.8889L7.41367 9.58333C7.07904 9.40028 6.70914 9.28094 6.32518 9.23213C5.94122 9.18333 5.55076 9.20603 5.17618 9.29894C4.80161 9.39184 4.45029 9.55312 4.14238 9.77353C3.83448 9.99394 3.57604 10.2691 3.38189 10.5833L0.417344 15.3889C-0.412729 16.7222 0.0615988 18.4444 1.48458 19.1944L13.1352 25.5L1.48458 31.8056C0.0615988 32.5833 -0.412729 34.2778 0.387698 35.6111L3.35224 40.4167C4.18231 41.75 5.99069 42.1944 7.41367 41.4444L19.0643 35.1111V47.7222C19.0643 49.25 20.3984 50.5 22.0289 50.5H27.958C29.5885 50.5 30.9225 49.25 30.9225 47.7222V35.1111L42.5732 41.4167C43.9961 42.1944 45.8045 41.7222 46.6346 40.3889L49.5991 35.5833C50.4292 34.25 49.9252 32.5556 48.5023 31.7778L36.8516 25.5L48.5023 19.1944C49.9252 18.4444 50.3996 16.7222 49.5695 15.4167Z" fill="#F2F2F2"/>
</svg>
