<svg width="50" height="51" viewBox="0 0 50 51" fill="none" xmlns="http://www.w3.org/2000/svg">
<path d="M14.0156 29.2533L21.416 21.2809L5.22933 3.87111C3.97414 2.5189 1.80372 2.88513 1.01923 4.63173C-0.837396 8.82923 -0.157505 13.9845 3.05891 17.4778L14.0156 29.2533ZM31.7451 24.1543C35.746 26.1545 41.3682 24.7459 45.526 20.2667C50.5206 14.886 51.4881 7.16714 47.6441 3.02598C43.8263 -1.087 36.6612 -0.0728406 31.6405 5.30784C27.4827 9.78705 26.1752 15.8438 28.0319 20.154L4.34024 45.677C3.8513 46.2038 3.57662 46.9182 3.57662 47.6631C3.57662 48.408 3.8513 49.1224 4.34024 49.6492C4.82918 50.1759 5.49233 50.4718 6.18379 50.4718C6.87526 50.4718 7.53841 50.1759 8.02735 49.6492L24.214 32.2676L40.3745 49.6773C40.6166 49.9382 40.904 50.1451 41.2203 50.2862C41.5366 50.4274 41.8757 50.5 42.2181 50.5C42.5604 50.5 42.8995 50.4274 43.2158 50.2862C43.5321 50.1451 43.8195 49.9382 44.0616 49.6773C44.3037 49.4165 44.4958 49.1069 44.6268 48.7661C44.7578 48.4254 44.8252 48.0601 44.8252 47.6913C44.8252 47.3224 44.7578 46.9572 44.6268 46.6164C44.4958 46.2757 44.3037 45.966 44.0616 45.7052L27.9011 28.2955L31.7451 24.1543Z" fill="#F2F2F2"/>
</svg>
