<svg width="89" height="84" viewBox="0 0 89 84" fill="none" xmlns="http://www.w3.org/2000/svg">
<path fill-rule="evenodd" clip-rule="evenodd" d="M74.9073 50.0603V58.1824L62.5476 73.8984L65.4107 75.5508L77.9103 58.7123V49.0004L74.9073 50.0603Z" fill="url(#paint0_linear_149_502)"/>
<path d="M74.9073 50.0603V58.1824L62.5476 73.8984L65.4107 75.5508L77.9103 58.7123V49.0004L74.9073 50.0603Z" stroke="#FF5758" stroke-width="2.5" stroke-miterlimit="22.9256" stroke-linecap="round" stroke-linejoin="round"/>
<path fill-rule="evenodd" clip-rule="evenodd" d="M15.3424 24.1195C21.755 14.9615 32.4237 8.97023 44.5001 8.97023C56.5765 8.97023 67.2452 14.9615 73.6578 24.1195H76.6516C77.8679 24.1195 79.0216 24.3919 80.0576 24.8813C74.6552 11.5132 60.7718 2.00007 44.5001 2.00007C28.2284 2.00007 14.3469 11.5132 8.94263 24.8813C9.97859 24.3919 11.1323 24.1195 12.3486 24.1195H15.3424Z" fill="url(#paint1_linear_149_502)"/>
<path d="M15.3424 24.1195C21.755 14.9615 32.4237 8.97023 44.5001 8.97023C56.5765 8.97023 67.2452 14.9615 73.6578 24.1195H76.6516C77.8679 24.1195 79.0216 24.3919 80.0576 24.8813C74.6552 11.5132 60.7718 2.00007 44.5001 2.00007C28.2284 2.00007 14.3469 11.5132 8.94263 24.8813C9.97859 24.3919 11.1323 24.1195 12.3486 24.1195H15.3424Z" stroke="#FF5758" stroke-width="2.5" stroke-miterlimit="22.9256" stroke-linecap="round" stroke-linejoin="round"/>
<path d="M44.7341 13.8392C61.97 13.8392 75.9417 24.668 75.9417 38.0233C75.9417 51.3785 61.97 62.2073 44.7341 62.2073C43.792 62.2073 42.8627 62.1723 41.9427 62.1079C42.7726 66.9326 45.4793 71.4776 49.2919 75.8569C39.6077 72.3019 31.7082 66.3806 26.1034 57.4268C18.4689 53.0198 13.5247 45.9668 13.5247 38.0233C13.5247 24.668 27.4963 13.8392 44.7341 13.8392Z" stroke="#FF5758" stroke-width="4" stroke-miterlimit="2.61313" stroke-linecap="round" stroke-linejoin="round"/>
<path fill-rule="evenodd" clip-rule="evenodd" d="M10.5011 23.5394H18.5919V52.5039H10.5011C5.82549 52.5039 2 48.6784 2 44.0028V32.0424C2 27.3667 5.82549 23.5394 10.5011 23.5394Z" fill="url(#paint2_linear_149_502)"/>
<path d="M10.5011 23.5394H18.5919V52.5039H10.5011C5.82549 52.5039 2 48.6784 2 44.0028V32.0424C2 27.3667 5.82549 23.5394 10.5011 23.5394Z" stroke="#FF5758" stroke-width="2.5" stroke-miterlimit="2.61313" stroke-linecap="round" stroke-linejoin="round"/>
<path fill-rule="evenodd" clip-rule="evenodd" d="M78.4987 23.5394H70.408V52.5039H78.4987C83.1743 52.5039 86.9998 48.6784 86.9998 44.0028V32.0424C86.9998 27.3667 83.1743 23.5394 78.4987 23.5394Z" fill="url(#paint3_linear_149_502)"/>
<path d="M78.4987 23.5394H70.408V52.5039H78.4987C83.1744 52.5039 86.9998 48.6784 86.9998 44.0028V32.0424C86.9998 27.3667 83.1744 23.5394 78.4987 23.5394Z" stroke="#FF5758" stroke-width="2.5" stroke-miterlimit="2.61313" stroke-linecap="round" stroke-linejoin="round"/>
<path fill-rule="evenodd" clip-rule="evenodd" d="M58.0799 77.3947L61.4803 73.3999C62.5494 72.145 64.4502 71.9923 65.7051 73.0613H65.7069C66.9619 74.1304 67.1128 76.0313 66.0455 77.2862L62.6432 81.281C61.576 82.5359 59.6733 82.6904 58.4184 81.6213V81.6195C57.1635 80.5523 57.0108 78.6515 58.0799 77.3947Z" fill="black"/>
<path d="M58.0799 77.3947L61.4803 73.3999C62.5494 72.145 64.4502 71.9923 65.7051 73.0613H65.7069C66.9619 74.1304 67.1128 76.0313 66.0455 77.2862L62.6432 81.281C61.576 82.5359 59.6733 82.6904 58.4184 81.6213V81.6195C57.1635 80.5523 57.0108 78.6515 58.0799 77.3947V77.3947Z" stroke="#FF5758" stroke-width="2.5" stroke-miterlimit="2.61313" stroke-linecap="round" stroke-linejoin="round"/>
<path d="M34.5896 39.4781C34.5896 41.7684 35.2917 44.0587 36.5289 45.9117C38.3128 48.6796 41.2361 50.8031 44.4356 51.2807C45.0974 51.3958 45.7419 51.4476 46.3922 51.4476C46.841 51.4476 47.2899 51.4246 47.7387 51.367C48.5386 51.298 49.327 51.1138 50.0981 50.8031C50.8692 50.5096 51.5195 50.1873 52.0086 49.8478C52.5035 49.5083 52.9811 49.1342 53.4415 48.6969C53.9076 48.2768 54.2011 47.9776 54.3392 47.8107C54.4658 47.6553 54.5809 47.5287 54.65 47.4309L52.233 44.3695L52.0489 44.5651C51.5713 45.0428 50.1154 46.2512 48.4523 46.4469C47.0942 46.7461 45.857 46.7461 44.7752 46.4469C43.6933 46.1534 42.7668 45.6642 42.0187 44.9449C40.5168 43.5236 39.6881 41.5325 39.6881 39.4493C39.6881 36.3879 41.5584 33.3553 44.7752 32.4978C45.857 32.2159 47.0942 32.2044 48.4523 32.4978C49.2407 32.5957 50.1384 32.9179 50.7023 33.1999C50.967 33.338 51.249 33.4934 51.5195 33.666C52.0489 34.017 52.1352 34.1149 52.233 34.1839L54.65 31.134L54.3565 30.8002C53.9479 30.3629 53.079 29.6608 52.0259 28.9876C50.967 28.3085 49.327 27.7216 47.7387 27.5662C47.3014 27.5259 46.8698 27.4971 46.4325 27.4971C45.7707 27.4799 45.1089 27.5374 44.4356 27.664C42.6517 27.946 41.0232 28.648 39.5212 29.7702C38.0136 30.9096 36.8051 32.331 35.9247 34.0458C35.0385 35.7549 34.5896 37.5676 34.5896 39.4781Z" fill="#FF5758"/>
<defs>
<linearGradient id="paint0_linear_149_502" x1="62.5476" y1="75.5508" x2="62.5476" y2="66.4426" gradientUnits="userSpaceOnUse">
<stop stop-color="#5DBAB1"/>
<stop offset="1" stop-color="#FF5758"/>
</linearGradient>
<linearGradient id="paint1_linear_149_502" x1="8.94263" y1="24.8813" x2="8.94263" y2="17.0319" gradientUnits="userSpaceOnUse">
<stop stop-color="#5DBAB1"/>
<stop offset="1" stop-color="#FF5758"/>
</linearGradient>
<linearGradient id="paint2_linear_149_502" x1="2" y1="52.5039" x2="2" y2="42.5675" gradientUnits="userSpaceOnUse">
<stop stop-color="#5DBAB1"/>
<stop offset="1" stop-color="#FF5758"/>
</linearGradient>
<linearGradient id="paint3_linear_149_502" x1="70.408" y1="52.5039" x2="70.408" y2="42.5675" gradientUnits="userSpaceOnUse">
<stop stop-color="#5DBAB1"/>
<stop offset="1" stop-color="#FF5758"/>
</linearGradient>
</defs>
</svg>
