<svg width="174" height="39" viewBox="0 0 174 39" fill="none" xmlns="http://www.w3.org/2000/svg">
<path d="M-0.000244141 19.7963C-0.000244141 22.2371 0.833217 24.4101 2.49022 26.33C4.14226 28.2499 6.11677 29.391 8.42367 29.7234C8.77591 29.773 9.12318 29.7879 9.47542 29.7879C10.1303 29.7879 10.8149 29.7085 11.4995 29.5547C13.5534 29.2074 15.3444 28.3045 16.3267 27.3669C17.046 26.6475 17.5818 25.9976 17.8993 25.442L14.3422 23.0557C13.7221 23.8743 12.8539 24.4101 11.7476 24.6234C11.2316 24.7921 10.7107 24.8764 10.2295 24.8764C9.99634 24.8913 9.7582 24.8764 9.52503 24.8268C8.38894 24.6234 7.47114 24.0727 6.76667 23.1549C6.06716 22.252 5.71492 21.1159 5.71492 19.7615C5.7298 18.3923 6.08204 17.2363 6.78651 16.3185C7.48603 15.4007 8.40879 14.8451 9.52503 14.6615C9.74332 14.6467 9.96161 14.6318 10.1601 14.6318C10.8447 14.6318 11.4648 14.7657 12.0155 15.0138C12.1494 15.1477 12.2685 15.2817 12.3677 15.4156L12.6356 15.9316L16.9468 16.4178C17.0956 16.0358 17.1651 15.4305 17.1651 14.6119C17.1651 14.597 17.1651 14.5623 17.18 14.5276C17.18 13.7437 17.0956 13.0591 16.9468 12.4737C16.6442 11.9379 15.9447 11.3723 14.8582 10.7869C13.7717 10.2015 12.4868 9.84929 10.9985 9.73022C10.5272 9.68061 10.0956 9.66573 9.70859 9.66573C9.42581 9.66573 9.1728 9.68061 8.93962 9.70045L8.42367 9.79967C6.92046 10.018 5.51648 10.6034 4.2266 11.5559C2.94168 12.5084 1.90481 13.7289 1.15073 15.1824C0.381759 16.636 -0.000244141 18.174 -0.000244141 19.7963ZM21.4118 26.6128C23.0638 28.5674 25.1376 29.639 27.6131 29.8573C27.8612 29.8722 28.0944 29.8921 28.3325 29.8921C30.5203 29.8921 32.3907 29.1529 33.9484 27.6695V29.5894H39.4602V11.1044C38.7111 10.8862 37.957 10.7026 37.2376 10.5835H37.1384C36.9201 10.5835 36.5183 10.6331 35.9329 10.7373C34.9655 10.3355 33.8294 10.0328 32.5246 9.84929C31.3538 9.68061 30.2524 9.60123 29.2304 9.60123H28.8832C28.5458 9.60123 28.1291 9.61611 27.6131 9.66573C25.1524 9.88401 23.0837 10.9506 21.4267 12.9103C19.7548 14.8649 18.9213 17.1371 18.9213 19.7615C18.9213 22.3859 19.7548 24.6581 21.4118 26.6128ZM24.6712 19.7615C24.6712 18.2236 25.1028 16.9684 25.9909 16.0159C26.8739 15.0634 27.9951 14.597 29.3644 14.597C30.7188 14.6119 31.84 15.0981 32.7082 16.0358C33.5764 16.9883 34.0129 18.2236 34.0129 19.7615V19.8607C33.998 21.3838 33.5615 22.6042 32.7082 23.522C31.8549 24.4597 30.7386 24.926 29.3644 24.926C27.9604 24.926 26.8243 24.4597 25.971 23.5071C25.1028 22.5546 24.6712 21.3143 24.6712 19.7615ZM41.4992 0.557181L41.5687 19.8607C41.5687 20.213 41.6034 21.3342 41.6034 21.6517C41.8167 26.8162 44.4907 29.4704 49.6602 29.5894C50.0075 29.2074 50.3448 28.3194 50.6921 26.9303C50.8756 26.1812 50.9798 25.5958 50.9798 25.1443C50.9798 24.7772 50.9104 24.5093 50.7764 24.3555C48.921 24.2761 47.8345 23.6064 47.5368 22.3363C47.2491 21.5475 47.1151 20.6793 47.1151 19.7268L47.0159 0.557181H41.4992ZM52.2151 0.557181L52.2796 19.8607C52.2796 20.213 52.3144 21.3342 52.3144 21.6517C52.5326 26.8162 55.2067 29.4704 60.3712 29.5894C60.7234 29.2074 61.0558 28.3194 61.408 26.9303C61.5916 26.1812 61.6908 25.5958 61.6908 25.1443C61.6908 24.7772 61.6263 24.5093 61.4924 24.3555C59.6369 24.2761 58.5504 23.6064 58.2478 22.3363C57.965 21.5475 57.8311 20.6793 57.8311 19.7268L57.7319 0.557181H52.2151ZM63.7149 29.5894H67.2422C67.2422 28.6716 67.2919 28.0664 67.3762 27.8183C69.0282 29.0387 71.1218 29.7383 73.642 29.8921C74.4457 29.8921 75.0659 29.8722 75.4975 29.8573C80.1956 29.639 84.0057 25.308 84.1893 20.4462C84.2091 20.2279 84.2092 20.0096 84.2092 19.7963C84.2092 19.444 84.1893 19.1265 84.1546 18.809C83.971 16.4178 83.0532 14.3291 81.4161 12.558C79.7591 10.8018 77.7895 9.8344 75.4975 9.66573C75.2494 9.61611 74.8476 9.60123 74.2969 9.60123C72.6548 9.60123 70.9531 9.88401 69.1969 10.4496L69.2316 0.120605H63.7149V29.5894ZM69.1969 20.7289V18.809C69.3805 17.5191 69.9014 16.5021 70.7348 15.7331C71.5683 14.979 72.5903 14.597 73.8107 14.597C75.18 14.6119 76.3012 15.0981 77.1892 16.0358C78.0723 16.9883 78.5089 18.2236 78.5089 19.7615C78.5089 21.3143 78.0723 22.5546 77.219 23.5071C76.3508 24.4597 75.2147 24.926 73.8107 24.926C72.5903 24.926 71.5683 24.544 70.7348 23.7899C69.9014 23.0358 69.3805 22.0188 69.1969 20.7289ZM86.6798 21.4136C86.6798 24.0727 87.5182 26.1464 89.205 27.6348C90.8917 29.138 93.1837 29.9069 96.0909 29.9218C98.7798 29.9218 100.953 29.257 102.645 27.9027C104.316 26.5483 105.234 24.7425 105.403 22.4703C105.452 22.0535 105.467 21.4136 105.467 20.5454L105.502 9.8989H99.9507V18.8735C99.9507 19.5631 99.9358 20.4809 99.8862 21.617C99.7175 23.9239 98.4474 25.0748 96.0909 25.0748C93.7344 25.0748 92.4644 23.9239 92.261 21.617C92.2312 20.848 92.2114 20.1783 92.2114 19.6276C92.2114 19.3448 92.2114 19.0918 92.2312 18.8735V9.8989H86.6798V21.4136ZM107.74 20.4462C107.844 22.0833 108.275 23.6064 109.044 24.9905C109.813 26.3796 110.85 27.5157 112.155 28.3839C113.46 29.2719 114.893 29.7581 116.451 29.8573C116.883 29.8722 117.503 29.8921 118.287 29.8921C120.762 29.773 122.851 29.0735 124.558 27.8183C124.642 28.0664 124.692 28.6716 124.692 29.5894H128.249V0.120605H122.702L122.732 10.4496C121.313 9.88401 119.894 9.60123 118.455 9.60123C117.419 9.60123 116.55 9.66573 115.866 9.79967C113.693 10.1172 111.852 11.1342 110.334 12.8408C108.811 14.5474 107.958 16.5368 107.774 18.809C107.74 19.1265 107.725 19.444 107.725 19.7963C107.725 20.0096 107.725 20.2279 107.74 20.4462ZM113.425 19.7615C113.425 18.2236 113.857 16.9684 114.745 16.0159C115.633 15.0634 116.749 14.597 118.123 14.597C119.339 14.6119 120.361 14.9989 121.194 15.748C122.032 16.5021 122.548 17.5191 122.732 18.809V20.7984C122.548 22.0684 122.032 23.0706 121.194 23.8048C120.361 24.5589 119.339 24.926 118.123 24.926C116.719 24.926 115.578 24.4597 114.73 23.5071C113.857 22.5546 113.425 21.3143 113.425 19.7615ZM130.422 20.4462C130.521 22.0833 130.957 23.6064 131.726 24.9905C132.495 26.3796 133.532 27.5157 134.837 28.3839C136.137 29.2719 137.576 29.7581 139.133 29.8573C139.565 29.8722 140.185 29.8921 140.969 29.8921C143.444 29.773 145.533 29.0735 147.24 27.8183C147.319 28.0664 147.374 28.6716 147.374 29.5894H150.931V0.120605H145.384L145.414 10.4496C143.995 9.88401 142.576 9.60123 141.138 9.60123C140.101 9.60123 139.232 9.66573 138.548 9.79967C136.375 10.1172 134.534 11.1342 133.011 12.8408C131.493 14.5474 130.64 16.5368 130.456 18.809C130.422 19.1265 130.407 19.444 130.407 19.7963C130.407 20.0096 130.407 20.2279 130.422 20.4462ZM136.107 19.7615C136.107 18.2236 136.539 16.9684 137.427 16.0159C138.31 15.0634 139.431 14.597 140.8 14.597C142.021 14.6119 143.043 14.9989 143.876 15.748C144.714 16.5021 145.23 17.5191 145.414 18.809V20.7984C145.23 22.0684 144.714 23.0706 143.876 23.8048C143.043 24.5589 142.021 24.926 140.8 24.926C139.396 24.926 138.26 24.4597 137.412 23.5071C136.539 22.5546 136.107 21.3143 136.107 19.7615ZM151.953 9.8989L158.288 23.0557L159.206 24.7276C158.804 28.885 157.033 32.5958 153.907 35.8553L157.901 38.2118C159.623 36.4258 161.027 34.7688 162.416 32.8141C163.1 31.8269 163.735 30.9091 164.301 30.0409C164.871 29.1529 165.491 28.1011 166.141 26.8807C166.791 25.6603 167.397 24.5242 167.913 23.4873C168.433 22.4504 169.049 21.1308 169.788 19.5085C170.502 17.9061 171.172 16.4326 171.757 15.0832C172.343 13.7437 173.077 12.0222 174 9.8989H167.798L163.185 20.3122L158.134 9.8989H151.953Z" fill="#FF5758"/>
</svg>
