<svg width="50" height="50" viewBox="0 0 50 50" fill="none" xmlns="http://www.w3.org/2000/svg">
<path d="M13.8905 17.6868H19.4463V23.9366C19.4463 24.351 19.5926 24.7484 19.8531 25.0414C20.1136 25.3344 20.4669 25.499 20.8353 25.499H26.3911C26.7595 25.499 27.1128 25.3344 27.3732 25.0414C27.6337 24.7484 27.7801 24.351 27.7801 23.9366V17.6868H33.3359C33.7043 17.6868 34.0576 17.5222 34.318 17.2292C34.5785 16.9362 34.7249 16.5388 34.7249 16.1244V9.87463C34.7249 9.46025 34.5785 9.06284 34.318 8.76982C34.0576 8.47681 33.7043 8.31219 33.3359 8.31219H27.7801V2.06244C27.7801 1.64805 27.6337 1.25064 27.3732 0.957628C27.1128 0.664614 26.7595 0.5 26.3911 0.5H20.8353C20.4669 0.5 20.1136 0.664614 19.8531 0.957628C19.5926 1.25064 19.4463 1.64805 19.4463 2.06244V8.31219H13.8905C13.5221 8.31219 13.1688 8.47681 12.9083 8.76982C12.6478 9.06284 12.5015 9.46025 12.5015 9.87463V16.1244C12.5015 16.5388 12.6478 16.9362 12.9083 17.2292C13.1688 17.5222 13.5221 17.6868 13.8905 17.6868ZM49.3254 33.3415C49.0556 32.9276 48.7157 32.5778 48.3253 32.3121C47.9349 32.0464 47.5017 31.87 47.0505 31.7932C46.5994 31.7163 46.1392 31.7405 45.6964 31.8642C45.2536 31.988 44.8369 32.2089 44.4701 32.5144L34.0816 41.1254H23.6114C23.2431 41.1254 22.8898 40.9608 22.6293 40.6677C22.3688 40.3747 22.2225 39.9773 22.2225 39.5629C22.2225 39.1485 22.3688 38.7511 22.6293 38.4581C22.8898 38.1651 23.2431 38.0005 23.6114 38.0005H30.4035C31.7924 38.0005 33.0729 36.939 33.3003 35.402C33.3674 34.9531 33.3468 34.4932 33.2398 34.0543C33.1327 33.6154 32.9419 33.208 32.6806 32.8605C32.4193 32.513 32.0938 32.2338 31.7268 32.0423C31.3597 31.8508 30.96 31.7516 30.5554 31.7517H16.6658C14.3232 31.7512 12.0516 32.6562 10.2314 34.3151L6.19476 38.0005H1.38896C1.02136 38.0033 0.669521 38.1688 0.409581 38.4612C0.149641 38.7536 0.00250156 39.1494 0 39.5629V48.9376C0.00250156 49.3511 0.149641 49.7469 0.409581 50.0393C0.669521 50.3317 1.02136 50.4972 1.38896 50.5H31.512C33.4387 50.4948 35.3142 49.8017 36.8682 48.5206L48.5901 38.7973C49.33 38.1828 49.8229 37.2633 49.9608 36.2405C50.0986 35.2176 49.8701 34.175 49.3254 33.3415V33.3415Z" fill="#F2F2F2"/>
</svg>
