<svg width="50" height="51" viewBox="0 0 50 51" fill="none" xmlns="http://www.w3.org/2000/svg">
<path d="M34.5209 46.3334C35.0742 46.3366 35.6226 46.2295 36.1341 46.0185C36.6456 45.8075 37.1099 45.4966 37.5 45.1042L43.1459 39.4584C43.5339 39.068 43.7517 38.54 43.7517 37.9896C43.7517 37.4392 43.5339 36.9112 43.1459 36.5209L34.8125 28.1875C34.4222 27.7995 33.8942 27.5817 33.3438 27.5817C32.7934 27.5817 32.2654 27.7995 31.875 28.1875L28.5417 31.5C26.2339 30.8847 24.0965 29.7519 22.2917 28.1875C20.7315 26.3799 19.5993 24.2435 18.9792 21.9375L22.2917 18.6042C22.6797 18.2139 22.8975 17.6859 22.8975 17.1355C22.8975 16.5851 22.6797 16.0571 22.2917 15.6667L13.9584 7.33338C13.568 6.94536 13.04 6.72757 12.4896 6.72757C11.9392 6.72757 11.4112 6.94536 11.0209 7.33338L5.39586 13.0001C5.00343 13.3901 4.69262 13.8545 4.48158 14.366C4.27054 14.8775 4.1635 15.4259 4.1667 15.9792C4.3557 23.984 7.55435 31.6236 13.125 37.375C18.8765 42.9457 26.5161 46.1444 34.5209 46.3334ZM12.5 11.7709L17.8959 17.1667L15.2084 19.8542C14.9538 20.0926 14.7632 20.3912 14.654 20.7224C14.5448 21.0536 14.5205 21.407 14.5834 21.75C15.362 25.23 17.0107 28.4556 19.375 31.125C22.0424 33.4924 25.2688 35.1415 28.75 35.9167C29.0879 35.9873 29.438 35.9729 29.7689 35.8747C30.0999 35.7766 30.4012 35.5977 30.6459 35.3542L33.3334 32.6042L38.7292 38L34.5625 42.1667C27.6536 41.9888 21.0615 39.2316 16.0834 34.4376C11.2769 29.4574 8.51171 22.8565 8.33336 15.9376L12.5 11.7709ZM41.6667 23.4167H45.8334C45.8874 20.9396 45.4393 18.4773 44.5162 16.178C43.593 13.8787 42.2139 11.7901 40.4619 10.0382C38.7099 8.28619 36.6214 6.90706 34.3221 5.98391C32.0228 5.06076 29.5604 4.61269 27.0834 4.66672V8.83338C29.0165 8.76651 30.9427 9.09799 32.7423 9.8072C34.5419 10.5164 36.1764 11.5882 37.5441 12.956C38.9119 14.3237 39.9837 15.9582 40.6929 17.7578C41.4021 19.5574 41.7336 21.4836 41.6667 23.4167Z" fill="#F2F2F2"/>
<path d="M27.0833 17.1667C31.4583 17.1667 33.3333 19.0417 33.3333 23.4167H37.5C37.5 16.7083 33.7916 13 27.0833 13V17.1667Z" fill="#F2F2F2"/>
</svg>
