<svg width="60" height="60" viewBox="0 0 60 60" fill="none" xmlns="http://www.w3.org/2000/svg">
<path d="M15.0938 45.4688C14.625 45.375 14.25 45.2812 13.7813 45.0937C13.3125 44.9062 12.9375 44.8125 12.5625 44.625C11.7188 44.25 10.9688 43.7812 10.2188 43.2187C8.71875 42.1875 7.5 40.7812 6.5625 39.0938C5.625 37.5 5.0625 35.625 4.96875 33.8437C4.875 32.9062 4.96875 32.0625 5.0625 31.125C5.15625 30.6562 5.25 30.2812 5.34375 29.8125C5.4375 29.3437 5.625 28.9687 5.71875 28.5L5.8125 29.8125C5.8125 30.2812 5.90625 30.6562 6 31.125C6.09375 31.9687 6.28125 32.8125 6.46875 33.5625C6.84375 35.1562 7.40625 36.6562 8.25 38.0625C9.09375 39.4687 10.0313 40.7812 11.25 42C11.8125 42.5625 12.4688 43.125 13.125 43.6875C13.4063 43.9687 13.7813 44.25 14.1563 44.5312L15.0938 45.4688ZM14.8125 48.8437C14.5313 49.0312 14.1563 49.125 13.7813 49.2188C13.4063 49.3125 13.125 49.4062 12.75 49.4062C12.0938 49.5 11.3438 49.5937 10.5938 49.5C9.1875 49.4062 7.6875 49.0312 6.46875 48.375C5.15625 47.7187 4.03125 46.6875 3.28125 45.4688C2.90625 44.9062 2.53125 44.25 2.25 43.5938C2.15625 43.3125 2.0625 42.9375 1.96875 42.5625C1.96875 42.2812 1.875 42 1.875 41.625C2.15625 41.9062 2.34375 42.1875 2.53125 42.375C2.8125 42.6562 3 42.9375 3.1875 43.125C3.65625 43.5938 4.03125 44.0625 4.5 44.4375C5.4375 45.2812 6.375 46.0312 7.5 46.5938C8.53125 47.1562 9.75 47.625 10.875 48C11.4375 48.1875 12.0938 48.2812 12.75 48.4688C13.0313 48.5625 13.4063 48.5625 13.6875 48.6562C14.1563 48.75 14.4375 48.75 14.8125 48.8437ZM36 3.28125C36.4688 3.375 36.8438 3.5625 37.3125 3.75C37.7812 3.9375 38.1562 4.125 38.5312 4.3125C39.375 4.78125 40.125 5.25 40.875 5.8125C42.375 6.9375 43.5938 8.4375 44.4375 10.125C45.2813 11.8125 45.75 13.6875 45.75 15.4687C45.75 16.4062 45.6563 17.25 45.4688 18.1875C45.375 18.6562 45.2812 19.0312 45.0938 19.5C44.9062 19.9687 44.8125 20.3437 44.625 20.7187L44.5313 19.4062C44.5313 18.9375 44.5313 18.5625 44.4375 18.0937L44.1562 15.5625C43.875 13.9687 43.3125 12.375 42.5625 10.875C41.8125 9.375 40.875 8.0625 39.75 6.84375C39.1875 6.1875 38.5313 5.625 37.9688 4.96875C37.6875 4.6875 37.3125 4.40625 36.9375 4.125L36 3.28125ZM44.1562 2.90625C44.5312 3 44.8125 3.09375 45.0938 3.28125C45.375 3.375 45.75 3.5625 46.0312 3.75C46.5938 4.125 47.1563 4.5 47.7188 4.96875C48.75 5.90625 49.5938 7.03125 50.0625 8.34375C50.625 9.65625 50.8125 11.0625 50.625 12.4688C50.5313 13.125 50.3438 13.7812 50.1563 14.4375C50.0625 14.7187 49.875 15.0937 49.7812 15.375C49.5938 15.6562 49.5 15.9375 49.2188 16.2187V14.3438C49.2188 13.6875 49.125 13.125 49.125 12.5625C48.9375 11.3437 48.75 10.2188 48.2813 9.1875C47.8125 8.0625 47.25 7.125 46.5938 6.09375C46.2188 5.625 45.8438 5.0625 45.4688 4.59375C45.2813 4.3125 45.0938 4.125 44.8125 3.84375C44.625 3.375 44.3438 3.09375 44.1562 2.90625Z" fill="#42ADE2"/>
<path d="M9.37493 16.8748C7.49993 17.7185 6.84368 19.9685 7.68743 21.8435L19.4999 46.4998L26.0624 43.406L14.2499 18.656C13.4062 16.781 11.2499 15.9373 9.37493 16.8748ZM40.4062 36.4685L47.3437 33.1873L33.8437 5.06226C32.9062 3.18726 30.6562 2.34351 28.6874 3.28101C26.8124 4.21851 25.9687 6.46851 26.9062 8.43726L40.4062 36.4685Z" fill="#FFDD67"/>
<path d="M28.7813 3.18768C28.5938 3.28143 28.4062 3.37518 28.2188 3.56268C30 3.09393 31.875 3.93768 32.7188 5.62518L46.2187 33.7502L47.4375 33.1877L33.9375 5.06268C33 3.09393 30.75 2.25018 28.7813 3.18768Z" fill="#EBA352"/>
<path d="M26.0624 43.3123L33.2812 39.8435L19.4999 11.156C18.5624 9.18729 16.1249 8.24979 14.1562 9.18729C12.1874 10.1248 11.3437 12.5623 12.2812 14.531L26.0624 43.3123Z" fill="#FFDD67"/>
<path d="M14.1563 9.28141C13.9688 9.37516 13.7813 9.46891 13.5938 9.65641C15.375 9.18766 17.4375 10.0314 18.2813 11.8127L26.8125 29.7189L28.875 30.9377L19.5 11.2502C18.5625 9.18766 16.2188 8.34391 14.1563 9.28141Z" fill="#EBA352"/>
<path d="M32.1562 37.5937L39.3749 34.125L25.5937 5.43745C24.6562 3.4687 22.2187 2.5312 20.2499 3.56245C18.2812 4.49995 17.4374 6.93745 18.3749 8.9062L32.1562 37.5937Z" fill="#FFDD67"/>
<path d="M20.25 3.46891C20.0625 3.56266 19.875 3.75016 19.6875 3.84391C21.4688 3.37516 23.5312 4.21891 24.375 6.00016L34.0312 26.2502L36.0938 27.4689L25.5938 5.43766C24.6562 3.37516 22.2188 2.53141 20.25 3.46891ZM9.375 16.8752C9.1875 16.9689 9 17.0627 8.8125 17.2502C10.5 16.7814 12.2812 17.6252 13.0312 19.3127L20.0625 34.0314L22.125 35.2502L14.25 18.7502C13.4062 16.7814 11.25 15.9377 9.375 16.8752Z" fill="#EBA352"/>
<path d="M56.9999 14.0627C54.4686 12.094 50.3437 14.2502 48.2811 21.0002C46.8749 25.6877 46.6874 27.094 43.6874 28.5002L41.9999 25.0315C41.9999 25.0315 15.3749 37.8752 16.4062 39.9377C16.4062 39.9377 19.5937 49.8752 25.0312 54.469C33.0937 61.4065 51.9374 54.0002 52.7811 36.094C53.2499 25.6877 59.7186 16.219 56.9999 14.0627Z" fill="#FFDD67"/>
<path d="M57 14.0625C56.5312 13.6875 55.9687 13.5 55.4062 13.4062C55.5 13.5 55.6875 13.5 55.7812 13.5937C58.5938 15.75 55.6875 20.7187 54.0938 25.2187C52.7813 28.7812 51.6562 32.4375 51.8438 36C52.5938 51.5625 36.9375 58.9688 27.5625 56.1563C36.75 60 53.8125 52.6875 53.0625 36.4688C52.875 32.9063 53.9062 29.4375 55.3125 25.6875C56.8125 21.1875 59.7188 16.2187 57 14.0625Z" fill="#EBA352"/>
<path d="M44.5311 28.125C38.7186 28.7812 30.1874 37.125 36.1874 46.2187C31.7811 37.0312 38.9999 30.8437 43.5936 28.6875C44.0624 28.3125 44.5311 28.125 44.5311 28.125Z" fill="#EBA352"/>
</svg>
